<?xml version="1.0" standalone="no"?>
<!DOCTYPE svg PUBLIC "-//W3C//DTD SVG 20010904//EN"
 "http://www.w3.org/TR/2001/REC-SVG-20010904/DTD/svg10.dtd">
<svg version="1.0" xmlns="http://www.w3.org/2000/svg"
 width="1024.000000pt" height="1024.000000pt" viewBox="0 0 1024.000000 1024.000000"
 preserveAspectRatio="xMidYMid meet">

<g transform="translate(0.000000,1024.000000) scale(0.100000,-0.100000)"
fill="#000000" stroke="none">
<path d="M9395 9443 c-16 -3 -34 -9 -39 -14 -6 -5 -18 -9 -28 -9 -10 0 -27 -4
-38 -10 -48 -24 -57 -28 -88 -34 -17 -4 -34 -12 -37 -17 -4 -5 -15 -9 -26 -9
-10 0 -19 -4 -19 -10 0 -5 -9 -10 -19 -10 -11 0 -21 -3 -23 -8 -4 -9 -169 -92
-184 -92 -5 0 -39 -15 -75 -32 -36 -18 -82 -39 -102 -47 -20 -8 -37 -18 -37
-23 0 -4 -9 -8 -20 -8 -11 0 -20 -4 -20 -10 0 -5 -9 -10 -20 -10 -11 0 -20 -4
-20 -10 0 -5 -9 -10 -20 -10 -11 0 -20 -4 -20 -10 0 -5 -9 -10 -19 -10 -11 0
-21 -4 -23 -8 -1 -4 -48 -29 -103 -56 -55 -26 -127 -61 -159 -77 -32 -16 -67
-29 -77 -29 -11 0 -19 -4 -19 -10 0 -5 -9 -10 -20 -10 -11 0 -20 -4 -20 -10 0
-5 -9 -10 -20 -10 -11 0 -20 -4 -20 -10 0 -5 -9 -10 -20 -10 -11 0 -20 -4 -20
-10 0 -5 -9 -10 -19 -10 -11 0 -21 -4 -23 -8 -4 -10 -93 -52 -110 -52 -7 0
-62 -25 -123 -55 -60 -30 -117 -55 -127 -55 -10 0 -18 -4 -18 -10 0 -5 -9 -10
-20 -10 -11 0 -20 -4 -20 -10 0 -5 -9 -10 -20 -10 -11 0 -20 -4 -20 -10 0 -5
-9 -10 -20 -10 -11 0 -20 -4 -20 -10 0 -5 -9 -10 -19 -10 -11 0 -23 -5 -26
-10 -4 -6 -11 -8 -16 -5 -5 4 -9 1 -9 -4 0 -6 -8 -11 -19 -11 -10 0 -53 -18
-96 -40 -43 -22 -83 -40 -90 -40 -7 0 -39 -13 -70 -30 -31 -16 -66 -30 -76
-30 -10 0 -19 -4 -19 -10 0 -5 -7 -10 -15 -10 -8 0 -30 -9 -49 -19 -19 -11
-51 -23 -70 -27 -20 -3 -36 -10 -36 -15 0 -5 -7 -9 -15 -9 -8 0 -37 -9 -63
-21 -26 -12 -56 -24 -67 -29 -11 -4 -40 -17 -63 -29 -24 -11 -50 -21 -57 -21
-7 0 -33 -10 -57 -21 -23 -12 -54 -26 -68 -32 -14 -5 -37 -16 -52 -23 -14 -8
-35 -14 -46 -14 -12 0 -24 -4 -27 -10 -3 -5 -15 -10 -26 -10 -10 0 -19 -4 -19
-10 0 -5 -9 -10 -20 -10 -11 0 -35 -9 -55 -20 -20 -11 -42 -20 -49 -20 -8 0
-40 -13 -71 -30 -31 -16 -63 -30 -71 -30 -7 0 -28 -8 -47 -19 -18 -10 -48 -22
-65 -26 -18 -3 -34 -11 -37 -16 -4 -5 -15 -9 -26 -9 -10 0 -19 -4 -19 -10 0
-5 -8 -10 -17 -10 -10 0 -97 -39 -193 -86 -96 -47 -186 -91 -200 -98 -14 -6
-34 -19 -44 -28 -11 -10 -25 -18 -31 -18 -6 0 -17 -9 -25 -20 -8 -11 -20 -20
-28 -20 -14 0 -70 -55 -89 -88 -7 -12 -10 -27 -8 -34 7 -18 53 -38 87 -38 15
0 28 -4 28 -10 0 -5 17 -10 38 -10 21 0 42 -4 47 -9 6 -5 39 -12 75 -15 36 -3
108 -10 160 -16 52 -6 160 -15 240 -20 80 -5 208 -14 285 -20 77 -6 178 -13
225 -15 47 -2 123 -9 170 -15 47 -7 105 -14 130 -17 25 -3 49 -9 54 -14 6 -5
27 -9 47 -9 21 0 41 -4 44 -10 3 -5 14 -10 24 -10 23 0 75 -26 91 -45 7 -8 19
-15 26 -15 8 0 14 -6 14 -13 0 -8 9 -22 20 -32 11 -10 20 -28 20 -40 0 -11 5
-26 12 -33 9 -9 9 -15 0 -24 -7 -7 -12 -27 -12 -45 0 -18 -4 -33 -10 -33 -5 0
-10 -9 -10 -20 0 -11 -4 -20 -9 -20 -7 0 -16 -20 -20 -48 -1 -4 -23 -29 -50
-57 -26 -27 -51 -58 -54 -67 -4 -10 -13 -18 -22 -18 -8 0 -15 -7 -15 -15 0 -9
-10 -19 -22 -24 -13 -5 -36 -23 -52 -40 -17 -17 -35 -31 -41 -31 -6 0 -29 -18
-50 -40 -21 -22 -44 -40 -51 -40 -6 0 -17 -6 -23 -14 -7 -8 -38 -28 -69 -44
-125 -65 -148 -78 -166 -94 -11 -10 -26 -18 -33 -18 -7 0 -13 -4 -13 -10 0 -5
-9 -10 -20 -10 -11 0 -20 -4 -20 -10 0 -5 -8 -10 -19 -10 -10 0 -52 -18 -94
-39 -42 -22 -93 -45 -114 -51 -21 -7 -54 -19 -73 -27 -19 -8 -46 -20 -60 -25
-14 -6 -33 -14 -42 -19 -10 -5 -27 -9 -38 -9 -11 0 -20 -4 -20 -10 0 -5 -13
-10 -30 -10 -16 0 -30 -4 -30 -10 0 -5 -11 -10 -24 -10 -14 0 -28 -4 -31 -10
-3 -5 -17 -10 -30 -10 -13 0 -27 -4 -30 -10 -3 -5 -17 -10 -30 -10 -13 0 -27
-4 -30 -10 -3 -5 -17 -10 -30 -10 -13 0 -27 -4 -30 -10 -3 -5 -17 -10 -29 -10
-26 0 -120 -26 -148 -41 -10 -5 -29 -9 -42 -9 -14 0 -28 -4 -31 -10 -3 -5 -19
-10 -35 -10 -16 0 -32 -4 -35 -10 -3 -5 -22 -10 -41 -10 -19 0 -34 -4 -34 -10
0 -5 -15 -10 -34 -10 -19 0 -38 -4 -41 -10 -3 -5 -24 -10 -45 -10 -21 0 -42
-4 -45 -10 -3 -5 -24 -10 -45 -10 -21 0 -42 -4 -45 -10 -3 -5 -21 -10 -40 -10
-19 0 -37 -4 -40 -10 -3 -5 -19 -10 -36 -10 -16 0 -37 -4 -47 -9 -9 -5 -53
-14 -97 -21 -75 -11 -99 -15 -227 -40 -68 -14 -161 -29 -218 -36 -25 -3 -49
-10 -55 -15 -5 -5 -35 -9 -66 -9 -32 0 -61 -4 -64 -10 -3 -5 -32 -10 -64 -10
-31 0 -61 -4 -67 -9 -5 -5 -36 -12 -69 -15 -33 -3 -94 -10 -135 -16 -123 -17
-215 -27 -410 -45 -378 -34 -546 -44 -1050 -64 -287 -12 -392 -20 -404 -32 -6
-5 -20 -9 -32 -9 -13 0 -26 -4 -29 -10 -3 -5 -14 -10 -23 -10 -14 0 -96 -38
-182 -86 -28 -15 -220 -204 -220 -216 0 -4 -23 -31 -50 -59 -28 -28 -50 -57
-50 -65 0 -8 -4 -14 -9 -14 -5 0 -12 -8 -15 -17 -8 -23 -29 -58 -47 -80 -8
-10 -26 -40 -39 -68 -13 -27 -31 -59 -41 -70 -9 -11 -22 -35 -30 -52 -8 -18
-17 -33 -21 -33 -5 0 -8 -9 -8 -20 0 -11 -4 -20 -10 -20 -5 0 -10 -9 -10 -20
0 -11 -4 -20 -10 -20 -5 0 -10 -7 -10 -15 0 -8 -4 -23 -9 -33 -16 -29 -45 -97
-46 -104 0 -3 -3 -10 -8 -14 -4 -4 -7 -15 -7 -25 0 -10 -9 -34 -20 -54 -11
-20 -20 -44 -20 -55 0 -11 -4 -20 -10 -20 -5 0 -10 -9 -10 -20 0 -11 -4 -20
-10 -20 -5 0 -10 -11 -10 -24 0 -14 -4 -28 -10 -31 -5 -3 -10 -17 -10 -30 0
-13 -4 -27 -10 -30 -5 -3 -10 -17 -10 -31 0 -13 -4 -24 -10 -24 -5 0 -10 -13
-10 -30 0 -16 -4 -30 -10 -30 -5 0 -10 -9 -10 -20 0 -11 -4 -20 -10 -20 -5 0
-10 -15 -10 -34 0 -19 -5 -38 -10 -41 -6 -3 -10 -16 -10 -29 0 -12 -5 -27 -11
-33 -6 -6 -9 -21 -7 -34 2 -19 10 -25 36 -27 18 -2 32 1 32 7 0 6 14 11 30 11
17 0 30 5 30 10 0 6 11 10 24 10 14 0 28 5 31 10 3 6 17 10 30 10 13 0 27 5
30 10 3 6 17 10 30 10 13 0 27 5 30 10 3 6 17 10 30 10 13 0 27 5 30 10 3 5
17 10 30 10 13 0 27 4 30 10 3 5 19 10 35 10 16 0 32 5 35 10 3 6 18 10 31 10
27 0 144 27 179 41 11 4 34 10 50 13 17 3 53 10 80 16 28 6 68 14 90 17 22 3
44 9 49 14 6 5 26 9 46 9 20 0 40 4 46 9 5 5 29 11 54 14 25 3 70 11 100 17
82 16 169 30 225 36 28 3 57 8 65 11 8 4 78 13 155 20 77 8 176 18 220 24 386
47 712 67 795 49 97 -21 150 -55 150 -97 0 -13 5 -23 11 -23 17 0 4 -150 -21
-250 -15 -60 -32 -124 -38 -140 -3 -8 -4 -22 -3 -32 1 -9 -3 -19 -9 -23 -5 -3
-10 -17 -10 -30 0 -13 -5 -27 -10 -30 -5 -3 -10 -17 -10 -30 0 -13 -5 -27 -10
-30 -6 -3 -10 -17 -10 -31 0 -13 -4 -24 -10 -24 -5 0 -10 -13 -10 -30 0 -16
-4 -30 -10 -30 -5 0 -10 -9 -10 -20 0 -11 -4 -20 -10 -20 -5 0 -10 -11 -10
-24 0 -14 -4 -28 -10 -31 -5 -3 -10 -17 -10 -31 0 -13 -4 -24 -10 -24 -5 0
-10 -9 -10 -19 0 -11 -4 -23 -10 -26 -5 -3 -10 -17 -10 -31 0 -13 -4 -24 -10
-24 -5 0 -10 -9 -10 -20 0 -11 -4 -20 -10 -20 -5 0 -10 -9 -10 -20 0 -11 -9
-35 -20 -55 -11 -19 -17 -35 -13 -35 4 0 2 -5 -5 -12 -7 -7 -12 -20 -12 -29 0
-19 -41 -102 -52 -107 -5 -2 -8 -12 -8 -23 0 -10 -4 -19 -10 -19 -5 0 -10 -9
-10 -20 0 -11 -3 -20 -7 -20 -10 0 -33 -49 -33 -71 0 -9 -7 -22 -15 -29 -8 -7
-27 -37 -42 -69 -15 -31 -31 -58 -35 -59 -4 -2 -8 -12 -8 -23 0 -10 -3 -19 -8
-19 -8 0 -9 -2 -60 -104 -18 -36 -37 -68 -42 -71 -6 -4 -19 -25 -30 -49 -10
-23 -26 -49 -35 -56 -8 -7 -15 -18 -15 -24 0 -6 -9 -18 -20 -26 -11 -8 -20
-20 -20 -28 0 -7 -9 -23 -20 -35 -43 -47 -70 -85 -70 -99 0 -7 -9 -19 -20 -26
-11 -7 -20 -18 -20 -25 0 -7 -22 -35 -50 -62 -27 -27 -50 -54 -50 -60 0 -6
-20 -31 -45 -55 -25 -24 -45 -49 -45 -55 0 -6 -40 -51 -90 -100 -49 -49 -90
-95 -90 -102 0 -7 -6 -13 -12 -13 -7 0 -52 -38 -101 -85 -48 -47 -92 -85 -98
-85 -6 0 -24 -13 -39 -30 -15 -16 -32 -30 -38 -30 -5 0 -23 -13 -39 -29 -17
-16 -40 -32 -52 -36 -11 -3 -21 -11 -21 -16 0 -5 -6 -9 -13 -9 -7 0 -23 -9
-35 -20 -12 -11 -25 -20 -30 -20 -4 0 -17 -8 -28 -18 -10 -10 -53 -34 -96 -55
-42 -21 -82 -44 -88 -52 -7 -8 -18 -15 -25 -15 -11 0 -30 -30 -23 -35 45 -27
215 -37 653 -38 462 0 767 27 1165 103 30 6 72 14 93 17 20 3 40 9 43 14 3 5
20 9 39 9 19 0 37 4 40 10 3 5 24 10 46 10 21 0 39 5 39 10 0 6 15 10 34 10
19 0 38 5 41 10 3 6 17 10 30 10 13 0 27 5 30 10 3 6 21 10 40 10 19 0 37 5
40 10 3 6 17 10 30 10 13 0 27 4 30 10 3 5 17 10 30 10 13 0 27 4 30 10 3 5
28 12 55 16 28 4 50 10 50 15 0 5 8 9 17 9 24 0 111 29 155 51 10 5 27 9 38 9
11 0 20 5 20 10 0 6 9 10 20 10 11 0 20 5 20 10 0 6 14 10 30 10 17 0 30 5 30
10 0 6 9 10 20 10 11 0 35 9 55 20 20 11 42 20 49 20 12 0 58 19 98 41 10 5
23 9 30 9 16 0 182 82 186 92 2 5 12 8 23 8 10 0 19 5 19 10 0 6 9 10 20 10
11 0 20 5 20 10 0 6 9 10 20 10 11 0 20 3 20 8 0 4 20 15 45 25 25 11 45 23
45 28 0 5 9 9 20 9 11 0 20 5 20 10 0 6 9 10 20 10 11 0 20 5 20 10 0 6 6 10
13 10 7 0 22 8 33 18 10 9 33 24 49 32 17 8 38 21 47 28 18 15 71 45 144 81
22 11 47 27 54 36 7 8 18 15 25 15 6 0 20 9 30 20 10 11 23 20 30 20 7 0 20 9
30 20 10 11 24 20 30 20 7 0 19 7 26 16 7 9 22 20 34 25 34 16 64 35 83 52 10
10 22 17 26 17 4 0 21 13 39 30 18 16 35 30 40 30 4 0 21 14 39 30 17 17 36
30 43 30 6 0 22 11 35 25 13 14 27 25 32 25 5 0 23 13 41 30 18 16 36 30 40
30 5 0 26 18 47 40 21 22 44 40 52 40 7 1 33 21 58 45 25 25 49 45 53 45 5 0
30 23 57 50 27 28 54 50 61 50 15 0 519 500 519 515 0 6 29 40 65 75 36 35 65
69 65 75 0 6 18 27 40 46 22 19 40 40 40 47 0 8 14 27 30 42 17 15 30 33 30
39 0 6 20 29 45 52 25 23 45 48 45 56 0 8 14 26 30 40 17 13 30 30 30 37 0 7
14 25 30 41 17 16 30 34 30 40 0 7 9 20 20 30 11 10 20 23 20 30 0 6 11 22 25
35 14 13 25 29 25 35 0 6 14 24 30 40 17 16 30 34 30 40 0 6 9 17 20 25 11 8
20 21 20 30 0 9 9 22 20 30 11 8 20 22 20 32 0 10 5 18 10 18 6 0 10 6 10 13
0 7 13 26 30 42 16 15 27 31 25 35 -3 4 4 15 15 25 11 10 20 24 20 30 0 7 7
18 15 25 9 7 25 32 35 55 10 23 26 48 35 55 8 7 15 17 15 22 0 5 9 18 20 30
11 12 20 28 20 35 0 7 5 13 10 13 6 0 10 9 10 19 0 10 7 21 15 24 13 6 63 100
54 104 -2 1 5 12 16 25 12 13 27 37 35 53 8 17 22 39 31 50 9 11 22 35 30 53
8 17 17 32 21 32 5 0 8 9 8 20 0 11 5 20 10 20 6 0 10 9 10 19 0 10 6 21 14
24 11 5 78 126 81 147 1 13 60 125 67 128 4 2 8 12 8 23 0 10 5 19 10 19 6 0
10 9 10 20 0 11 5 20 10 20 6 0 10 9 10 19 0 11 4 21 8 23 9 3 142 271 142
286 0 5 18 44 40 87 22 43 40 83 40 89 0 18 24 66 33 66 4 0 7 9 7 20 0 11 5
20 10 20 6 0 10 14 10 30 0 17 3 30 8 30 8 0 32 49 32 67 0 7 9 28 20 48 11
20 20 44 20 55 0 11 4 20 9 20 5 0 12 18 16 40 4 22 11 42 16 46 5 3 9 13 9
24 0 10 14 44 30 75 17 31 30 62 30 69 0 7 9 31 20 54 11 22 20 53 20 67 0 14
5 25 10 25 6 0 10 11 10 24 0 14 5 28 10 31 6 3 10 15 10 25 0 11 9 35 20 55
11 20 20 44 20 55 0 10 5 22 10 25 6 3 10 19 10 35 0 16 5 32 10 35 6 3 10 17
10 30 0 13 5 27 10 30 6 4 8 10 5 15 -3 5 -1 11 5 15 5 3 10 21 10 40 0 19 5
37 10 40 6 3 10 17 10 30 0 13 5 27 10 30 6 3 10 17 10 31 0 13 5 24 10 24 6
0 10 15 10 34 0 19 5 38 10 41 6 3 10 17 10 30 0 13 5 27 10 30 6 3 10 17 10
30 0 13 5 27 10 30 6 3 10 22 10 41 0 19 5 34 10 34 6 0 10 13 10 29 0 17 5
33 10 36 6 3 10 21 10 40 0 19 5 37 10 40 6 3 10 19 10 35 0 16 4 31 9 34 5 3
11 20 14 38 8 47 18 90 24 108 3 8 7 26 9 40 1 14 8 45 14 70 6 25 14 62 17
83 3 20 9 40 14 43 5 3 9 22 9 43 0 20 4 41 9 46 8 9 13 32 27 138 3 23 9 51
14 62 9 20 16 60 26 145 3 25 10 49 15 55 5 5 9 32 9 60 0 28 4 55 9 60 5 6
12 35 15 65 3 30 10 87 16 125 42 275 56 597 26 617 -11 8 -39 8 -91 1z
m-1683 -3760 c17 -17 28 -37 28 -54 0 -15 5 -31 10 -34 14 -9 13 -218 -2 -233
-7 -7 -10 -37 -9 -76 1 -37 -2 -67 -8 -71 -6 -3 -11 -30 -11 -60 0 -30 -4 -57
-10 -60 -5 -3 -10 -22 -10 -41 0 -19 -4 -34 -10 -34 -5 0 -10 -13 -10 -30 0
-16 -4 -30 -10 -30 -5 0 -10 -15 -10 -34 0 -19 -4 -38 -10 -41 -5 -3 -10 -22
-10 -41 0 -19 -4 -34 -10 -34 -5 0 -10 -13 -10 -30 0 -16 -4 -30 -10 -30 -5 0
-10 -13 -10 -30 0 -16 -4 -30 -10 -30 -5 0 -10 -9 -10 -20 0 -11 -4 -20 -10
-20 -5 0 -10 -9 -10 -20 0 -11 -9 -35 -20 -55 -11 -20 -20 -44 -20 -55 0 -11
-5 -20 -10 -20 -6 0 -10 -6 -9 -12 3 -17 -33 -98 -43 -98 -5 0 -8 -9 -8 -20 0
-11 -4 -20 -10 -20 -5 0 -10 -9 -10 -19 0 -11 -3 -21 -8 -23 -4 -1 -23 -34
-42 -73 -19 -38 -38 -71 -42 -73 -5 -2 -8 -11 -8 -21 0 -9 -9 -23 -20 -31 -11
-8 -20 -22 -20 -32 0 -10 -4 -18 -10 -18 -5 0 -10 -9 -10 -20 0 -11 -5 -20
-11 -20 -5 0 -8 -4 -5 -9 3 -5 -1 -14 -10 -22 -8 -7 -24 -31 -34 -54 -10 -23
-26 -48 -35 -55 -8 -7 -15 -18 -15 -25 0 -6 -9 -20 -20 -30 -11 -10 -20 -24
-20 -31 0 -7 -13 -24 -30 -37 -16 -14 -30 -32 -30 -39 0 -8 -9 -20 -20 -28
-11 -8 -20 -20 -20 -28 0 -7 -11 -24 -25 -38 -14 -14 -25 -29 -25 -34 0 -6
-18 -26 -40 -46 -22 -20 -40 -43 -40 -50 0 -8 -18 -30 -40 -50 -22 -20 -40
-42 -40 -48 0 -7 -20 -32 -45 -56 -25 -24 -45 -49 -45 -55 0 -12 -428 -439
-447 -446 -6 -2 -36 -28 -66 -56 -31 -29 -59 -53 -64 -53 -5 0 -32 -22 -61
-50 -29 -27 -56 -50 -60 -50 -4 0 -31 -23 -60 -50 -29 -28 -57 -50 -62 -50 -5
0 -20 -11 -34 -25 -14 -14 -30 -25 -37 -25 -6 0 -19 -8 -28 -18 -9 -9 -28 -23
-43 -31 -16 -8 -28 -18 -28 -23 0 -4 -5 -8 -12 -8 -7 0 -24 -12 -39 -26 -27
-26 -55 -44 -94 -63 -12 -5 -27 -16 -34 -25 -7 -9 -19 -16 -26 -16 -7 0 -18
-7 -25 -15 -7 -9 -32 -25 -55 -35 -23 -10 -48 -26 -55 -35 -7 -8 -18 -15 -25
-15 -6 0 -20 -9 -30 -20 -10 -11 -22 -20 -28 -20 -15 0 -81 -32 -102 -50 -11
-10 -35 -23 -52 -31 -18 -8 -33 -17 -33 -21 0 -5 -9 -8 -20 -8 -11 0 -20 -4
-20 -10 0 -5 -8 -10 -18 -10 -10 0 -24 -9 -32 -20 -8 -11 -22 -20 -32 -20 -10
0 -18 -4 -18 -10 0 -5 -8 -10 -17 -10 -10 0 -27 -7 -37 -15 -11 -8 -27 -15
-37 -15 -9 0 -51 -18 -94 -40 -43 -22 -83 -40 -90 -40 -7 0 -39 -13 -70 -30
-31 -16 -66 -30 -76 -30 -10 0 -19 -4 -19 -10 0 -5 -13 -10 -30 -10 -16 0 -30
-4 -30 -10 0 -5 -15 -10 -33 -10 -18 0 -38 -5 -43 -10 -17 -17 -157 -17 -187
-1 -46 25 -54 64 -31 166 2 11 7 36 11 55 3 19 14 49 24 68 11 18 19 39 19 47
0 8 9 30 20 50 11 20 20 44 20 55 0 11 5 20 10 20 6 0 10 9 10 20 0 11 5 20
10 20 6 0 10 9 10 20 0 11 5 20 10 20 6 0 10 8 10 18 0 11 23 63 50 117 28 54
50 106 50 117 0 10 5 18 12 18 6 0 9 3 6 6 -3 3 16 48 43 101 27 53 49 104 49
115 0 10 5 18 10 18 6 0 10 9 10 20 0 11 5 20 10 20 6 0 10 9 10 20 0 11 5 20
10 20 6 0 10 9 10 20 0 11 5 20 10 20 6 0 10 9 10 20 0 11 5 20 10 20 6 0 10
8 10 18 0 10 11 41 25 68 14 27 25 56 25 66 0 18 41 101 53 106 4 2 7 16 7 32
0 16 3 30 8 32 10 4 52 87 52 103 0 7 14 39 30 70 17 31 30 66 30 76 0 10 5
19 10 19 6 0 10 9 10 20 0 11 5 20 10 20 6 0 10 9 10 20 0 11 8 34 18 52 10
18 17 38 15 44 -2 7 5 28 17 48 11 20 20 45 20 56 0 11 5 20 10 20 6 0 10 9
10 20 0 11 5 20 10 20 6 0 10 11 10 24 0 14 5 28 10 31 6 3 10 15 10 25 0 11
9 35 20 55 11 20 20 44 20 55 0 11 5 20 10 20 6 0 10 9 10 20 0 11 5 20 10 20
6 0 10 13 10 29 0 16 3 31 8 33 11 5 52 88 52 107 0 10 3 21 8 25 4 4 7 11 8
14 2 20 25 62 33 62 5 0 13 10 17 23 11 37 131 147 159 147 14 0 25 5 25 10 0
6 9 10 20 10 11 0 20 5 20 10 0 6 11 10 24 10 14 0 28 5 31 10 3 6 17 10 30
10 13 0 27 5 30 10 3 6 17 10 30 10 13 0 26 4 29 9 3 4 33 11 65 15 33 4 63
11 66 16 4 6 17 10 31 10 13 0 24 5 24 10 0 6 18 10 40 10 22 0 40 5 40 10 0
6 11 10 24 10 14 0 28 5 31 10 3 6 15 10 25 10 11 0 35 9 55 20 20 11 44 20
55 20 10 0 22 5 25 10 3 6 17 10 31 10 13 0 24 5 24 10 0 6 9 10 20 10 11 0
20 4 20 9 0 5 12 11 28 14 43 9 102 31 102 39 0 5 9 8 20 8 11 0 20 5 20 10 0
6 8 10 17 10 10 0 85 34 168 76 203 103 227 116 246 136 9 10 23 18 30 18 8 0
21 9 29 20 8 11 22 20 32 20 10 0 18 5 18 10 0 6 7 10 16 10 9 0 28 13 43 29
14 15 36 31 49 35 12 4 22 12 22 17 0 5 8 9 18 9 10 0 24 9 32 20 8 11 21 20
28 20 7 0 31 18 52 40 21 22 43 40 48 40 6 0 30 20 54 45 24 24 49 45 56 45 7
0 48 36 92 80 44 44 83 80 88 80 5 0 15 7 22 15 7 8 21 15 31 15 11 0 19 5 19
10 0 6 14 10 30 10 17 0 30 5 30 10 0 16 12 12 42 -17z"/>
</g>
</svg>
